<?xml version="1.0" encoding="utf-8"?>
<!-- Generator: Adobe Illustrator 20.1.0, SVG Export Plug-In . SVG Version: 6.00 Build 0)  -->
<svg version="1.1" id="Layer_1" xmlns="http://www.w3.org/2000/svg" xmlns:xlink="http://www.w3.org/1999/xlink" x="0px" y="0px"
	 viewBox="0 0 163.3 50" style="enable-background:new 0 0 163.3 50;" xml:space="preserve">
<style type="text/css">
	.st0{fill:#1E231D;}
	.st1{fill:#8EBC3F;}
	.st2{fill:#A9D050;}
	.st3{fill:#564118;}
	.st4{fill:#EC5A24;}
</style>
<path class="st0" d="M28.4,26.3c0,0,0.4,18.4,22.8,22.3S99.4,24.2,94.9,5.9L28.4,26.3z"/>
<path class="st1" d="M35,33.5c-6.1-2-8.6-8.1-5.2-12.8c1.5-2.1,3.6-4.8,7.5-6.9C54.9,4.3,86.3,0,92.5,3.3c9.3,4.9-12,25.8-28,29.9
	C52.8,36.1,42.6,36,35,33.5z"/>
<path class="st2" d="M38.9,28.7c-5-1.2-7.2-5.5-4.6-9c1.1-1.5,2.7-3.6,5.9-5.2C54.2,7.1,79.5,3,84.7,5.2c7.7,3.2-8.9,18.9-21.8,22.3
	C53.4,30,45.2,30.2,38.9,28.7z"/>
<path class="st3" d="M67.3,16.3c0,0-1.9-9.7-12.1-6.6s-6.6,13.2-6.6,13.2S61,26.1,67.3,16.3z"/>
<g>
	<path class="st4" d="M26.7,27.9c0.1,0.2,0,0.4-0.3,0.4h-6.3c-0.3,0-0.5-0.2-0.7-0.4l-1-3.4h-6l-1,3.4c-0.1,0.3-0.4,0.4-0.7,0.4H4.5
		c-0.3,0-0.4-0.2-0.3-0.4l7.2-21.3c0.1-0.2,0.4-0.4,0.8-0.4h6.5c0.3,0,0.7,0.2,0.8,0.4L26.7,27.9z M15.5,13.8l-1.7,6.1h3.5
		L15.5,13.8z"/>
	<path class="st4" d="M46.6,6.2c0.3,0,0.4,0.2,0.3,0.4l-7.3,21.2c-0.1,0.2-0.3,0.4-0.6,0.4h-7.1c-0.3,0-0.5-0.2-0.6-0.4L24,6.6
		c-0.1-0.2,0.1-0.4,0.3-0.4h7.2c0.3,0,0.5,0.2,0.6,0.4l3.4,13.2l3.4-13.2c0.1-0.2,0.3-0.4,0.6-0.4H46.6z"/>
	<path class="st4" d="M58.3,28.8c-6.8,0-11.4-4.6-11.4-11.5c0-7,4.6-11.6,11.4-11.6s11.4,4.6,11.4,11.6
		C69.7,24.1,65.1,28.8,58.3,28.8z M58.3,12.1c-2.6,0-4.4,2.1-4.4,5.1s1.8,5.1,4.4,5.1c2.6,0,4.4-2.1,4.4-5.1S60.9,12.1,58.3,12.1z"
		/>
	<path class="st4" d="M89.9,26.4c0.1,0.2,0,0.4-0.3,0.6c-1.9,1.2-4.4,1.9-6.7,1.9c-6.6,0-11-4.6-11-11.5c0-6.9,4.4-11.5,11-11.5
		c2.4,0,4.9,0.7,6.7,1.9c0.3,0.1,0.4,0.4,0.3,0.6l-2.1,4.5c-0.1,0.3-0.4,0.4-0.6,0.3C86,12.2,84.8,12,83.5,12
		c-2.9,0-4.8,2.1-4.8,5.3c0,3.2,1.9,5.3,4.8,5.3c1.4,0,2.5-0.2,3.7-0.9c0.3-0.1,0.5,0,0.6,0.3L89.9,26.4z"/>
	<path class="st4" d="M113.3,27.9c0.1,0.2,0,0.4-0.3,0.4h-6.3c-0.3,0-0.5-0.2-0.7-0.4l-1-3.4h-6l-1,3.4c-0.1,0.3-0.4,0.4-0.7,0.4H91
		c-0.3,0-0.4-0.2-0.3-0.4L98,6.6c0.1-0.2,0.4-0.4,0.8-0.4h6.5c0.3,0,0.7,0.2,0.8,0.4L113.3,27.9z M102,13.8l-1.7,6.1h3.5L102,13.8z"
		/>
	<path class="st4" d="M122.5,6.2c6.8,0,11.3,4.4,11.3,11.1c0,6.6-4.5,11.1-11.3,11.1H115c-0.2,0-0.4-0.2-0.4-0.5V6.7
		c0-0.3,0.2-0.5,0.4-0.5H122.5z M122.8,22.5c2.5,0,4.1-2.1,4.1-5.3c0-3.2-1.7-5.3-4.1-5.3h-1.7v10.6H122.8z"/>
	<path class="st4" d="M147.3,28.8c-6.8,0-11.4-4.6-11.4-11.5c0-7,4.6-11.6,11.4-11.6c6.8,0,11.4,4.6,11.4,11.6
		C158.7,24.1,154.1,28.8,147.3,28.8z M147.3,12.1c-2.6,0-4.4,2.1-4.4,5.1s1.8,5.1,4.4,5.1c2.6,0,4.4-2.1,4.4-5.1
		S149.9,12.1,147.3,12.1z"/>
</g>
</svg>
